<?xml version="1.0" encoding="UTF-8" standalone="no"?>
<svg
   xmlns:dc="http://purl.org/dc/elements/1.1/"
   xmlns:cc="http://creativecommons.org/ns#"
   xmlns:rdf="http://www.w3.org/1999/02/22-rdf-syntax-ns#"
   xmlns:svg="http://www.w3.org/2000/svg"
   xmlns="http://www.w3.org/2000/svg"
   id="svg1601"
   version="1.1"
   viewBox="0 0 14.02292 11.411694"
   height="11.411694mm"
   width="14.02292mm">
  <defs
     id="defs1595" />
  <metadata
     id="metadata1598">
    <rdf:RDF>
      <cc:Work
         rdf:about="">
        <dc:format>image/svg+xml</dc:format>
        <dc:type
           rdf:resource="http://purl.org/dc/dcmitype/StillImage" />
        <dc:title></dc:title>
      </cc:Work>
    </rdf:RDF>
  </metadata>
  <g
     transform="translate(-148.71473,-230.06201)"
     id="layer1">
    <path
       id="path895"
       d="m 149.5614,241.1216 c -0.17463,-0.17463 -0.3175,-0.51872 -0.3175,-0.76465 0,-0.56592 2.27525,-3.68035 2.68869,-3.68035 0.1697,0 -0.4849,-0.82186 -1.45466,-1.82636 -0.96976,-1.0045 -1.7632,-1.94726 -1.7632,-2.09503 0,-0.74273 0.37569,-1.1057 1.14447,-1.1057 0.63746,0 1.13863,0.31146 2.22065,1.38003 l 1.39738,1.38002 v -1.85627 c 0,-1.96303 0.25246,-2.49128 1.19062,-2.49128 0.86863,0 1.19063,0.5263 1.19063,1.94601 0,1.24205 0.0249,1.28851 0.4727,0.88322 1.30941,-1.185 3.78998,-1.56822 5.50707,-0.85077 0.79422,0.33184 0.92294,0.50186 0.8514,1.12448 -0.0832,0.72385 -0.10581,0.73241 -1.7161,0.64929 -1.99822,-0.10315 -3.02021,0.36114 -3.63177,1.64991 -1.06213,2.23828 0.96554,4.45239 3.49053,3.81148 1.37495,-0.349 1.90534,-0.15605 1.90534,0.69316 0,0.88048 -1.15536,1.47031 -2.88006,1.47031 -1.53542,0 -2.57007,-0.34108 -3.4038,-1.12208 -0.58081,-0.54408 -0.59531,-0.54494 -0.59531,-0.0353 0,0.6785 -0.49262,1.15737 -1.19063,1.15737 -0.86699,0 -1.19062,-0.52573 -1.19062,-1.93411 v -1.29911 l -1.19008,1.61661 c -1.21353,1.64847 -2.00105,2.02381 -2.72575,1.29911 z m 2.13956,-1.52771 c 0.96125,-1.28756 1.19498,-1.961 0.77145,-2.22276 -0.29799,-0.18417 -0.60721,0.0754 -1.5817,1.32792 -0.87103,1.1195 -1.1241,2.21088 -0.51267,2.21088 0.18722,0 0.78254,-0.59222 1.32292,-1.31604 z m 3.46775,0.89753 c 0.31114,-0.81081 0.17846,-9.24738 -0.1506,-9.57645 -0.63895,-0.63894 -1.01171,0.17981 -1.01171,2.22215 0,1.23926 -0.10592,1.95198 -0.29007,1.95198 -0.15954,0 -1.03594,-0.65485 -1.94757,-1.45521 -0.91163,-0.80037 -1.79313,-1.45521 -1.95889,-1.45521 -0.79209,0 -0.1012,1.05382 1.94757,2.97067 l 2.24896,2.10414 v 1.40971 c 0,1.62853 0.182,2.24673 0.66145,2.24673 0.18715,0 0.41254,-0.18833 0.50086,-0.41851 z m 6.30719,0.0336 c 0.42934,-0.22202 0.73089,-0.26429 0.73258,-0.56109 0.003,-0.54327 -0.69483,-0.06 -1.54406,0.0361 -1.18268,0.13381 -1.74273,0.072 -2.39295,-0.26429 -1.88433,-0.97443 -2.49356,-3.61681 -1.19085,-5.16499 1.09757,-1.30439 2.01756,-1.65999 3.75787,-1.45251 1.15802,0.13806 1.2585,0.19872 1.2039,-0.1362 -0.30524,-0.54667 -2.26114,-0.80573 -3.32761,-0.52149 -0.53909,0.14368 -1.34276,0.56634 -1.78594,0.93925 -0.79287,0.66716 -0.80578,0.7179 -0.80578,3.16804 0,2.17044 0.0708,2.56077 0.55121,3.04123 1.23857,1.23857 3.37812,1.65207 4.80163,0.91595 z"
       style="fill:#000000;stroke-width:0.26458338" />
  </g>
</svg>
