<?xml version="1.0" encoding="UTF-8" standalone="no"?>
<svg
   xmlns:dc="http://purl.org/dc/elements/1.1/"
   xmlns:cc="http://creativecommons.org/ns#"
   xmlns:rdf="http://www.w3.org/1999/02/22-rdf-syntax-ns#"
   xmlns:svg="http://www.w3.org/2000/svg"
   xmlns="http://www.w3.org/2000/svg"
   id="svg967"
   version="1.1"
   viewBox="0 0 27.710703 4.7751999"
   height="4.7751999mm"
   width="27.710703mm">
  <defs
     id="defs961" />
  <metadata
     id="metadata964">
    <rdf:RDF>
      <cc:Work
         rdf:about="">
        <dc:format>image/svg+xml</dc:format>
        <dc:type
           rdf:resource="http://purl.org/dc/dcmitype/StillImage" />
        <dc:title></dc:title>
      </cc:Work>
    </rdf:RDF>
  </metadata>
  <g
     transform="translate(-76.102977,-101.84455)"
     id="layer1">
    <g
       id="flowRoot897"
       style="font-style:normal;font-variant:normal;font-weight:normal;font-stretch:normal;font-size:10.66666698px;line-height:100%;font-family:sans-serif;-inkscape-font-specification:'sans-serif, Normal';font-variant-ligatures:normal;font-variant-caps:normal;font-variant-numeric:normal;font-feature-settings:normal;text-align:start;letter-spacing:0px;word-spacing:0px;writing-mode:lr-tb;text-anchor:start;fill:#000000;fill-opacity:1;stroke:none;stroke-width:1px;stroke-linecap:butt;stroke-linejoin:miter;stroke-opacity:1"
       transform="matrix(0.26458333,0,0,0.26458333,-3.0148471,-32.566504)"
       aria-label="ekcentrik">
      <path
         id="path924"
         style="font-style:normal;font-variant:normal;font-weight:bold;font-stretch:normal;font-size:24px;font-family:'Nimbus Sans L';-inkscape-font-specification:'Nimbus Sans L Bold'"
         d="m 311.076,520.08228 c 0.024,-0.288 0.024,-0.408 0.024,-0.576 0,-1.296 -0.192,-2.496 -0.504,-3.408 -0.864,-2.352 -2.952,-3.768 -5.568,-3.768 -3.72,0 -6,2.688 -6,7.032 0,4.152 2.256,6.696 5.928,6.696 2.904,0 5.256,-1.656 6,-4.2 h -3.312 c -0.408,1.032 -1.344,1.632 -2.568,1.632 -0.96,0 -1.728,-0.408 -2.208,-1.128 -0.312,-0.48 -0.432,-1.056 -0.48,-2.28 z m -8.64,-2.232 c 0.216,-1.968 1.056,-2.952 2.544,-2.952 0.84,0 1.608,0.408 2.088,1.08 0.312,0.48 0.456,0.984 0.528,1.872 z" />
      <path
         id="path926"
         style="font-style:normal;font-variant:normal;font-weight:bold;font-stretch:normal;font-size:24px;font-family:'Nimbus Sans L';-inkscape-font-specification:'Nimbus Sans L Bold'"
         d="m 316.63537,517.58628 v -9.576 h -3.36 v 17.496 h 3.36 v -4.248 l 1.344,-1.464 3.096,5.712 h 3.936 l -4.728,-8.064 4.416,-4.896 h -3.816 z" />
      <path
         id="path928"
         style="font-style:normal;font-variant:normal;font-weight:bold;font-stretch:normal;font-size:24px;font-family:'Nimbus Sans L';-inkscape-font-specification:'Nimbus Sans L Bold'"
         d="m 337.74675,517.39428 c -0.24,-3.168 -2.352,-5.064 -5.592,-5.064 -3.864,0 -6.12,2.544 -6.12,6.96 0,4.272 2.232,6.768 6.072,6.768 3.144,0 5.328,-1.944 5.64,-5.04 h -3.216 c -0.432,1.68 -1.104,2.328 -2.4,2.328 -1.704,0 -2.736,-1.536 -2.736,-4.056 0,-1.224 0.24,-2.376 0.648,-3.144 0.384,-0.72 1.128,-1.104 2.088,-1.104 1.368,0 2.016,0.648 2.4,2.352 z" />
      <path
         id="path930"
         style="font-style:normal;font-variant:normal;font-weight:bold;font-stretch:normal;font-size:24px;font-family:'Nimbus Sans L';-inkscape-font-specification:'Nimbus Sans L Bold'"
         d="m 351.15413,520.08228 c 0.024,-0.288 0.024,-0.408 0.024,-0.576 0,-1.296 -0.192,-2.496 -0.50401,-3.408 -0.86399,-2.352 -2.952,-3.768 -5.56799,-3.768 -3.72001,0 -6,2.688 -6,7.032 0,4.152 2.25599,6.696 5.928,6.696 2.904,0 5.25599,-1.656 6,-4.2 h -3.31201 c -0.408,1.032 -1.344,1.632 -2.56799,1.632 -0.96001,0 -1.728,-0.408 -2.20801,-1.128 -0.312,-0.48 -0.432,-1.056 -0.48,-2.28 z m -8.64001,-2.232 c 0.216,-1.968 1.05601,-2.952 2.54401,-2.952 0.83999,0 1.608,0.408 2.08799,1.08 0.312,0.48 0.456,0.984 0.528,1.872 z" />
      <path
         id="path932"
         style="font-style:normal;font-variant:normal;font-weight:bold;font-stretch:normal;font-size:24px;font-family:'Nimbus Sans L';-inkscape-font-specification:'Nimbus Sans L Bold'"
         d="m 353.4495,512.54628 v 12.96 h 3.36 v -7.776 c 0,-1.536 1.08,-2.544 2.712,-2.544 1.44,0 2.16,0.792 2.16,2.328 v 7.992 h 3.36 v -8.688 c 0,-2.856 -1.584,-4.488 -4.344,-4.488 -1.752,0 -2.928,0.648 -3.888,2.088 v -1.872 z" />
      <path
         id="path934"
         style="font-style:normal;font-variant:normal;font-weight:bold;font-stretch:normal;font-size:24px;font-family:'Nimbus Sans L';-inkscape-font-specification:'Nimbus Sans L Bold'"
         d="m 373.83337,512.81028 h -1.872 v -3.48 h -3.35999 v 3.48 h -1.656 v 2.232 h 1.656 v 7.968 c 0,2.04 1.07999,3.048 3.28799,3.048 0.744,0 1.34401,-0.072 1.944,-0.264 v -2.352 c -0.336,0.048 -0.52799,0.072 -0.76799,0.072 -0.88801,0 -1.10401,-0.264 -1.10401,-1.416 v -7.056 h 1.872 z" />
      <path
         id="path936"
         style="font-style:normal;font-variant:normal;font-weight:bold;font-stretch:normal;font-size:24px;font-family:'Nimbus Sans L';-inkscape-font-specification:'Nimbus Sans L Bold'"
         d="m 376.137,512.54628 v 12.96 h 3.36 v -6.888 c 0,-1.968 0.984,-2.952 2.952,-2.952 0.36,0 0.6,0.024 1.056,0.096 v -3.408 c -0.192,-0.024 -0.312,-0.024 -0.408,-0.024 -1.536,0 -2.88,1.008 -3.6,2.76 v -2.544 z" />
      <path
         id="path938"
         style="font-style:normal;font-variant:normal;font-weight:bold;font-stretch:normal;font-size:24px;font-family:'Nimbus Sans L';-inkscape-font-specification:'Nimbus Sans L Bold'"
         d="m 388.92113,512.54628 h -3.36001 v 12.96 h 3.36001 z m 0,-4.536 h -3.36001 v 3 h 3.36001 z" />
      <path
         id="path940"
         style="font-style:normal;font-variant:normal;font-weight:bold;font-stretch:normal;font-size:24px;font-family:'Nimbus Sans L';-inkscape-font-specification:'Nimbus Sans L Bold'"
         d="m 395.38537,517.58628 v -9.576 h -3.36 v 17.496 h 3.36 v -4.248 l 1.344,-1.464 3.096,5.712 h 3.936 l -4.728,-8.064 4.416,-4.896 h -3.816 z" />
    </g>
  </g>
</svg>
